<svg xmlns="http://www.w3.org/2000/svg" viewBox="0 0 512 512">
  <defs>
    <linearGradient id="bg" x1="20%" y1="0%" x2="80%" y2="100%">
      <stop offset="0%" stop-color="#4FC3F7"/>
      <stop offset="100%" stop-color="#1AC9B7"/>
    </linearGradient>
  </defs>
  <circle cx="256" cy="256" r="256" fill="url(#bg)"/>

  <!-- Eagle in flight, white silhouette -->
  <g fill="white">

    <!-- LEFT WING (large, sweeping up-left with feather tips) -->
    <path d="
      M 242 268
      C 225 255 200 238 172 218
      C 148 200 118 180  88 162
      C  68 152  46 146  36 154
      C  50 158  68 168  82 180
      C  60 174  40 172  28 182
      C  44 190  68 194  90 202
      C  64 205  42 212  32 226
      C  50 232  78 228 104 234
      C  82 241  62 254  56 270
      C  76 263 106 256 134 260
      C 116 272 104 290 106 308
      C 122 292 148 272 174 267
      C 168 280 164 296 166 312
      C 184 295 206 274 228 268
      Z
    "/>

    <!-- RIGHT WING (sweeping up-right with feather tips) -->
    <path d="
      M 270 268
      C 288 254 316 236 346 214
      C 372 196 404 174 436 158
      C 456 147 478 142 490 151
      C 476 157 458 167 444 180
      C 464 173 484 170 496 180
      C 480 188 456 193 434 202
      C 456 204 478 210 490 224
      C 472 230 446 226 420 233
      C 438 240 456 253 462 268
      C 444 262 416 254 390 258
      C 404 270 412 288 410 305
      C 394 290 370 270 346 265
      C 350 278 352 294 350 310
      C 332 294 310 274 286 268
      Z
    "/>

    <!-- BODY / TORSO -->
    <path d="
      M 236 270
      C 230 290 228 315 232 340
      C 238 330 244 318 250 310
      C 250 325 252 342 256 358
      C 260 342 262 325 264 310
      C 268 320 274 332 278 342
      C 280 318 278 294 272 272
      C 265 268 252 268 236 270 Z
    "/>

    <!-- CHEST / NECK area -->
    <ellipse cx="256" cy="278" rx="30" ry="22"/>

    <!-- HEAD -->
    <ellipse cx="300" cy="234" rx="30" ry="26" transform="rotate(15 300 234)"/>

    <!-- BEAK - hooked eagle beak -->
    <path d="M 324 226 C 350 218 368 226 365 236 C 362 244 348 244 330 240 Z"/>
    <path d="M 352 235 C 364 238 370 248 362 254 C 355 257 342 252 335 244 Z"/>

    <!-- EYE -->
    <circle cx="308" cy="226" r="6" fill="#2dd4bf"/>
    <circle cx="308" cy="226" r="3" fill="#0e7490"/>

    <!-- TAIL FEATHERS (fanning out below) -->
    <path d="M 244 345 C 232 365 222 386 218 408 L 228 408 C 232 390 240 370 248 350 Z"/>
    <path d="M 250 348 C 242 370 236 392 236 414 L 248 412 C 250 392 254 372 258 352 Z"/>
    <path d="M 256 350 C 252 372 250 394 252 416 L 264 414 C 262 392 262 370 264 352 Z"/>
    <path d="M 262 348 C 262 370 264 392 268 414 L 278 412 C 274 390 272 368 270 348 Z"/>
    <path d="M 268 345 C 272 366 278 388 284 408 L 294 406 C 286 386 278 364 274 344 Z"/>

    <!-- LEFT LEG / TALON -->
    <path d="M 238 350 C 234 362 230 374 228 388 L 236 386 C 238 374 242 362 244 350 Z"/>
    <path d="M 228 385 C 218 392 208 400 204 412 L 214 410 C 218 402 226 395 232 390 Z"/>
    <path d="M 232 388 C 226 398 222 410 224 422 L 234 418 C 234 408 236 398 238 390 Z"/>
    <path d="M 238 390 C 236 402 236 414 240 424 L 250 420 C 248 410 246 400 244 390 Z"/>

    <!-- RIGHT LEG / TALON -->
    <path d="M 274 350 C 276 362 278 374 278 388 L 286 386 C 284 374 280 362 276 350 Z"/>
    <path d="M 278 385 C 284 394 290 402 294 414 L 304 410 C 298 400 290 392 284 388 Z"/>
    <path d="M 282 388 C 286 400 288 412 286 422 L 296 420 C 298 408 294 396 290 388 Z"/>
    <path d="M 274 390 C 274 402 276 414 280 424 L 288 420 C 286 408 284 398 282 390 Z"/>

  </g>
</svg>
